<svg xmlns="http://www.w3.org/2000/svg" xmlns:xlink="http://www.w3.org/1999/xlink" xmlns:serif="http://www.serif.com/" viewBox="0 0 32 40" version="1.1" xml:space="preserve" style="" x="0px" y="0px" fill-rule="evenodd" clip-rule="evenodd" stroke-linejoin="round" stroke-miterlimit="2"><path d="M12.714,30.245c0.303,0.092 0.631,0.034 0.885,-0.154c0.254,-0.189 0.404,-0.487 0.404,-0.803l0,-14.288c0,-0.552 -0.448,-1 -1,-1l-4.036,0c-0,0 -0,-3 -0,-3c-0,0 14.073,0 14.073,0c-0,-0 -0,3 -0,3c-0,0 -4.037,0 -4.037,0c-0.552,0 -1,0.448 -1,1l0,14.288c0,0.316 0.15,0.614 0.404,0.803c0.254,0.188 0.582,0.246 0.885,0.154l6.406,-2.216c0.364,-0.11 0.635,-0.417 0.697,-0.792l2.091,-12.5c0.018,-0.105 0.019,-0.212 0.002,-0.317l-1.568,-10.227c-0.051,-0.334 -0.268,-0.62 -0.576,-0.759c-6.897,-3.123 -13.794,-3.147 -20.691,0.001c-0.307,0.14 -0.522,0.425 -0.573,0.758l-1.568,10.227c-0.017,0.105 -0.016,0.212 0.002,0.317l2.091,12.5c0.062,0.375 0.333,0.682 0.697,0.792l6.412,2.216Z"/><text x="0" y="47" fill="#000000" font-size="5px" font-weight="bold" font-family="'Helvetica Neue', Helvetica, Arial-Unicode, Arial, Sans-serif">Created by Singlar</text><text x="0" y="52" fill="#000000" font-size="5px" font-weight="bold" font-family="'Helvetica Neue', Helvetica, Arial-Unicode, Arial, Sans-serif">from the Noun Project</text></svg>